<svg xmlns="http://www.w3.org/2000/svg" width="1730.05" height="1730.05" viewBox="0 0 1730.05 1730.05"><defs><style>.a{fill:none;}.b{fill:#fff;}.c{fill:#203143;}</style></defs><polygon class="a" points="174.94 1046.92 157.2 1003.76 140.9 1046.92 174.94 1046.92"/><circle class="b" cx="865.03" cy="865.03" r="865.03"/><polygon class="c" points="673.91 333.49 1021.82 1207.26 673.91 333.49 673.91 333.49"/><polygon class="c" points="1452.53 1207.26 1104.62 333.49 1037.69 333.49 878.37 761.29 908.51 837 1018.08 534.48 1181.94 950.3 953.63 950.3 972.32 997.24 1200.4 997.24 1283.49 1207.26 1196.94 1207.26 1196.94 1254.2 1511.38 1254.2 1511.38 1207.26 1452.53 1207.26"/><path class="c" d="M659.32-584.26,333.91,289.51H271.6v46.94H499.5V289.51H395.65l76.16-210H822l83.08,210H818.57v46.94H1133V289.51h-58.85L726.25-584.26ZM803.57,32.56H489.12L639.71-383.27,803.57,32.56Z" transform="translate(-52.35 917.74)"/></svg>