<?xml version="1.0"?>
<svg xmlns="http://www.w3.org/2000/svg" id="Outline" viewBox="0 0 512 512" width="512" height="512"><path d="M319.586,64.24a8,8,0,0,0-6.378-5.368L278.733,53.6l-15.491-33a8,8,0,0,0-14.484,0l-15.491,33-34.475,5.268a8,8,0,0,0-4.518,13.5l25.18,25.808L213.5,134.712A8,8,0,0,0,225.26,143L256,126.009,286.74,143a8,8,0,0,0,11.765-8.29l-5.959-36.537,25.18-25.808A8,8,0,0,0,319.586,64.24ZM278.274,89.891a8,8,0,0,0-2.17,6.875l3.958,24.262L259.87,109.867a8,8,0,0,0-7.74,0l-20.192,11.161L235.9,96.766a8,8,0,0,0-2.17-6.875L216.6,72.337l23.3-3.561a8,8,0,0,0,6.034-4.508L256,42.828l10.063,21.44a8,8,0,0,0,6.034,4.508l23.3,3.561Z"/><path d="M153.208,90.872,118.733,85.6l-15.491-33a8,8,0,0,0-14.484,0l-15.491,33L38.792,90.872a8,8,0,0,0-4.518,13.5l25.18,25.808L53.5,166.712A8,8,0,0,0,65.26,175L96,158.009,126.74,175a8,8,0,0,0,11.765-8.29l-5.959-36.537,25.18-25.808a8,8,0,0,0-4.518-13.5Zm-34.934,31.019a8,8,0,0,0-2.17,6.875l3.958,24.262L99.87,141.867a8,8,0,0,0-7.74,0L71.938,153.028,75.9,128.766a8,8,0,0,0-2.17-6.875L56.6,104.337l23.3-3.561a8,8,0,0,0,6.034-4.508L96,74.828l10.063,21.44a8,8,0,0,0,6.034,4.508l23.3,3.561Z"/><path d="M479.586,96.24a8,8,0,0,0-6.378-5.368L438.733,85.6l-15.491-33a8,8,0,0,0-14.484,0l-15.491,33-34.475,5.268a8,8,0,0,0-4.518,13.5l25.18,25.808L373.5,166.712A8,8,0,0,0,385.26,175L416,158.009,446.74,175a8,8,0,0,0,11.765-8.29l-5.959-36.537,25.18-25.808A8,8,0,0,0,479.586,96.24Zm-41.312,25.651a8,8,0,0,0-2.17,6.875l3.958,24.262L419.87,141.867a8,8,0,0,0-7.74,0l-20.192,11.161,3.958-24.262a8,8,0,0,0-2.17-6.875L376.6,104.337l23.3-3.561a8,8,0,0,0,6.034-4.508L416,74.828l10.063,21.44a8,8,0,0,0,6.034,4.508l23.3,3.561Z"/><path d="M120,440a8,8,0,0,0,2.793,6.074C125.172,448.112,181.893,496,256,496s130.828-47.888,133.207-49.926A8,8,0,0,0,392,440c0-61.919-41.6-114.3-98.312-130.683a72,72,0,1,0-75.376,0C161.6,325.7,120,378.081,120,440Zm80-192a56,56,0,1,1,56,56A56.063,56.063,0,0,1,200,248Zm56,72A120.149,120.149,0,0,1,375.941,436.2C363.891,445.5,315.18,480,256,480s-107.891-34.5-119.941-43.8A120.149,120.149,0,0,1,256,320Z"/></svg>
