<svg id="Capa_1" enable-background="new 0 0 512 512" height="512" viewBox="0 0 512 512" width="512" xmlns="http://www.w3.org/2000/svg"><g><path d="m308.5 294.5c0 28.949 23.551 52.5 52.5 52.5h98.5c28.949 0 52.5-23.551 52.5-52.5 0-1.12-.251-2.226-.734-3.237l-90.392-188.936c7.063-3.8 11.876-11.261 11.876-19.828 0-5.758-2.177-11.016-5.747-15 3.571-3.984 5.747-9.242 5.747-15 0-12.407-10.093-22.5-22.5-22.5h-106.826c-8.441-17.72-26.523-29.999-47.424-29.999s-38.983 12.279-47.424 30h-106.826c-12.407 0-22.5 10.093-22.5 22.5 0 5.758 2.177 11.016 5.747 15-3.571 3.984-5.747 9.242-5.747 15 0 8.566 4.813 16.028 11.876 19.828l-90.392 188.935c-.483 1.011-.734 2.117-.734 3.237 0 28.949 23.551 52.5 52.5 52.5h98.5c28.949 0 52.5-23.551 52.5-52.5 0-1.12-.251-2.226-.734-3.237l-90.392-188.936c7.063-3.8 11.876-11.261 11.876-19.828 0-2.629-.458-5.153-1.29-7.5h85.616c2.513 5.275 5.882 10.063 9.924 14.192v32.098c-8.729 3.096-15 11.432-15 21.21s6.271 18.114 15 21.21v198.291h-52.5c-12.407 0-22.5 10.093-22.5 22.5 0 9.778 6.27 18.12 15 21.215v16.285h-56.75c-2.508 0-4.849 1.253-6.24 3.34l-21.68 32.519c-3.816 5.724-10.201 9.141-17.08 9.141-20.678 0-37.5 16.822-37.5 37.5 0 4.142 3.358 7.5 7.5 7.5h458.5c4.142 0 7.5-3.358 7.5-7.5 0-20.678-16.822-37.5-37.5-37.5-6.879 0-13.264-3.417-17.08-9.141l-21.68-32.519c-1.391-2.086-3.732-3.34-6.24-3.34h-56.75v-16.29c8.729-3.096 15-11.432 15-21.21 0-12.407-10.093-22.5-22.5-22.5h-52.5v-198.29c8.729-3.096 15-11.432 15-21.21s-6.271-18.114-15-21.21v-32.098c4.042-4.13 7.411-8.918 9.924-14.192h85.616c-.833 2.347-1.29 4.871-1.29 7.5 0 8.566 4.813 16.028 11.876 19.828l-90.392 188.936c-.483 1.01-.734 2.116-.734 3.236zm151 37.5h-98.5c-18.109 0-33.255-12.905-36.739-30h171.979c-3.485 17.095-18.631 30-36.74 30zm-131.598-45 82.348-172.122 82.348 172.122zm-226.152-172.122 82.348 172.122h-164.696zm49.25 217.122h-98.5c-18.109 0-33.255-12.905-36.739-30h171.979c-3.485 17.095-18.631 30-36.74 30zm-41.75-249.5c0 4.136-3.364 7.5-7.5 7.5s-7.5-3.364-7.5-7.5 3.364-7.5 7.5-7.5 7.5 3.364 7.5 7.5zm-7.5-22.5c-4.136 0-7.5-3.364-7.5-7.5s3.364-7.5 7.5-7.5h102.294c-.352 2.451-.544 4.953-.544 7.5s.192 5.049.544 7.5zm131.75 60v-20.076c6.824 3.25 14.452 5.076 22.5 5.076s15.676-1.825 22.5-5.076v20.076zm242.965 377h-440.93c3.095-8.73 11.437-15 21.215-15h398.5c9.778 0 18.12 6.27 21.215 15zm-50.776-30.821c.187.281.39.547.585.821h-340.548c.194-.274.398-.54.585-.821l19.453-29.179h300.473zm-72.189-81.679c0 4.136-3.364 7.5-7.5 7.5h-150c-4.142 0-7.5 3.358-7.5 7.5s3.358 7.5 7.5 7.5h142.5v15h-165v-22.5c0-4.142-3.358-7.5-7.5-7.5-4.136 0-7.5-3.364-7.5-7.5s3.364-7.5 7.5-7.5h180c4.136 0 7.5 3.364 7.5 7.5zm-120-22.5v-197h45v197zm52.5-212h-60c-4.136 0-7.5-3.364-7.5-7.5s3.364-7.5 7.5-7.5h60c4.136 0 7.5 3.364 7.5 7.5s-3.364 7.5-7.5 7.5zm-30-60c-20.678 0-37.5-16.822-37.5-37.5s16.822-37.5 37.5-37.5 37.5 16.822 37.5 37.5-16.822 37.5-37.5 37.5zm51.956-45h102.294c4.136 0 7.5 3.364 7.5 7.5s-3.364 7.5-7.5 7.5h-102.294c.352-2.451.544-4.953.544-7.5s-.192-5.049-.544-7.5zm109.794 37.5c0 4.136-3.364 7.5-7.5 7.5s-7.5-3.364-7.5-7.5 3.364-7.5 7.5-7.5 7.5 3.364 7.5 7.5z"/><path d="m256 30c-12.407 0-22.5 10.093-22.5 22.5s10.093 22.5 22.5 22.5 22.5-10.093 22.5-22.5-10.093-22.5-22.5-22.5zm0 30c-4.136 0-7.5-3.364-7.5-7.5s3.364-7.5 7.5-7.5 7.5 3.364 7.5 7.5-3.364 7.5-7.5 7.5z"/></g></svg>