<svg xmlns="http://www.w3.org/2000/svg" width="375.49" height="81.47" viewBox="0 0 375.49 81.47"><defs><style>.a{fill:#fff;}</style></defs><path class="a" d="M144.88,434.87h1.47L154,414.25h1.58l8.21,20.62h1.39V436h-7.42v-1.11h2l-2-5h-8.26l-1.8,5h2.45V436h-5.38Zm12.56-6.06L153.57,419,150,428.81Z" transform="translate(-37.54 -394.54)"/><path class="a" d="M179.07,433.71A6.32,6.32,0,0,1,173.7,436a8.07,8.07,0,0,1-2.68-.49,6.87,6.87,0,0,1-4.63-6.83,6.79,6.79,0,0,1,2.15-5.3,7.8,7.8,0,0,1,5.44-1.93,7.32,7.32,0,0,1,3.47.84,2.62,2.62,0,0,1,1.6,2.39,1.86,1.86,0,0,1-.51,1.35,1.6,1.6,0,0,1-1.11.52,2.23,2.23,0,0,1-1.49-.45,1.48,1.48,0,0,1-.53-1.2,1.74,1.74,0,0,1,1-1.71,4.23,4.23,0,0,0-2.33-.65q-3.91,0-3.92,6.12c0,2.88.79,4.73,2.37,5.57a4,4,0,0,0,1.84.41,5.36,5.36,0,0,0,4-1.57Z" transform="translate(-37.54 -394.54)"/><path class="a" d="M191.54,434.58a6.25,6.25,0,0,1-3.92,1.41,6.93,6.93,0,0,1-3.56-.86,4.36,4.36,0,0,1-2-4.05v-8.52h-1.93v-1.11h5.47V431.9c0,2,.88,3,2.65,3a4.24,4.24,0,0,0,3.3-1.76V422.56h-2.36v-1.11h5.87V434.9h1.76V436h-5.27Z" transform="translate(-37.54 -394.54)"/><path class="a" d="M208.58,422.79a5.11,5.11,0,0,0-4,2.23v9.85H207V436h-8.22v-1.11H201V422.79h-2.22v-1.34h5.76v2.18a6.22,6.22,0,0,1,4.67-2.19,5.56,5.56,0,0,1,3.21.95,4.37,4.37,0,0,1,1.81,3.91v8.57h2.2V436h-8.22v-1.11h2.48V426a5,5,0,0,0-.33-2.21,2.13,2.13,0,0,0-.75-.81A2.22,2.22,0,0,0,208.58,422.79Zm4.06-7.86q-1.51,3.45-3.55,3.45a3.25,3.25,0,0,1-1.67-.56c-.6-.38-1.07-.66-1.38-.83a2.07,2.07,0,0,0-1-.25,1.42,1.42,0,0,0-.95.39,7,7,0,0,0-.93,1l-.63-.53a12.07,12.07,0,0,1,1.3-2.09,2.9,2.9,0,0,1,2-1.29,3.53,3.53,0,0,1,1.84.54l1.35.79a1.87,1.87,0,0,0,.87.25,2,2,0,0,0,1.72-.87c.12-.17.24-.34.35-.52Z" transform="translate(-37.54 -394.54)"/><path class="a" d="M227,434.1a5.22,5.22,0,0,1-4.23,1.89,5.37,5.37,0,0,1-3.47-1.17,3.75,3.75,0,0,1-1.46-3.07,3.54,3.54,0,0,1,1.43-3,6.68,6.68,0,0,1,7.45.09v-3.14a4,4,0,0,0-.41-2.16,2.18,2.18,0,0,0-1-.79,3.23,3.23,0,0,0-1.22-.23,5.65,5.65,0,0,0-1.77.24,2.76,2.76,0,0,0-1,.48,1.55,1.55,0,0,1,1,.9,1.64,1.64,0,0,1,.11.62A1.46,1.46,0,0,1,222,426a1.62,1.62,0,0,1-1.08.47,2.11,2.11,0,0,1-1.49-.49,1.53,1.53,0,0,1-.53-1.17,2.22,2.22,0,0,1,.26-1.13,2.75,2.75,0,0,1,.69-.8,5.85,5.85,0,0,1,2.09-1,9,9,0,0,1,2.37-.35,6.9,6.9,0,0,1,4.53,1.24,4.31,4.31,0,0,1,1.47,3.48v7.3c0,.76.19,1.14.56,1.14a1.4,1.4,0,0,0,1.07-.71l.71.61a3.29,3.29,0,0,1-3,1.49,2.69,2.69,0,0,1-1.49-.49A2.55,2.55,0,0,1,227,434.1Zm-.24-4a3.49,3.49,0,0,0-2.53-1.18,2.85,2.85,0,0,0-2.07.67,2.89,2.89,0,0,0-.7,2.17c0,1.46.5,2.35,1.49,2.67a2.75,2.75,0,0,0,.85.14,3.51,3.51,0,0,0,2.37-1,4.37,4.37,0,0,0,.59-.63Z" transform="translate(-37.54 -394.54)"/><path class="a" d="M259.36,431.35c1.76,1.8,3.17,2.69,4.22,2.69a2.14,2.14,0,0,0,1.29-.35l.51.72a4.14,4.14,0,0,1-3.49,1.58,6.75,6.75,0,0,1-4.49-2,7.72,7.72,0,0,1-5.4,2,9.47,9.47,0,0,1-5.54-1.6,5,5,0,0,1-2.32-4.31,5.6,5.6,0,0,1,1.47-3.87,7,7,0,0,1,3-2c-1.52-1.88-2.29-3.58-2.29-5.08a4.13,4.13,0,0,1,1.89-3.58,7.61,7.61,0,0,1,7.82-.45,3,3,0,0,1,1.59,2.35,1.65,1.65,0,0,1,.06.48,1.74,1.74,0,0,1-.57,1.27,1.89,1.89,0,0,1-1.34.56,1.81,1.81,0,0,1-1.32-.56,1.75,1.75,0,0,1-.56-1.24,1.86,1.86,0,0,1,1.11-1.84,3.33,3.33,0,0,0-2.37-.8,3.2,3.2,0,0,0-2.31.77,2.76,2.76,0,0,0-.8,2.08c0,1.31.93,3.08,2.79,5.34q5.31,6,6.05,6.79a14.07,14.07,0,0,0,1-5.53h-2.36v-1.11H263v1.11h-2.18A15.24,15.24,0,0,1,259.36,431.35Zm-11.73-3a5.93,5.93,0,0,0-.19,1.59,4.48,4.48,0,0,0,1.39,3.33,5,5,0,0,0,3.68,1.37,5.76,5.76,0,0,0,4-1.5c-.72-.73-1.46-1.55-2.21-2.46l-2.48-2.87q-1.69-1.86-2.28-2.55A5.71,5.71,0,0,0,247.63,428.35Z" transform="translate(-37.54 -394.54)"/><path class="a" d="M275,434.87h1.47l7.68-20.62h1.58l8.21,20.62h1.39V436h-7.42v-1.11h2l-2-5h-8.26l-1.8,5h2.45V436H275Zm12.56-6.06L283.69,419l-3.55,9.82Z" transform="translate(-37.54 -394.54)"/><path class="a" d="M299.24,434.68a1.8,1.8,0,0,0-.49,1.3h-1.31l.05-4.28h1.26a2.85,2.85,0,0,0,1.31,2.07,5.19,5.19,0,0,0,3.33,1.06c1.34,0,2.19-.4,2.56-1.18a1.78,1.78,0,0,0,.15-.71q0-.69-.93-1.26a17.65,17.65,0,0,0-3.07-1.34,9.21,9.21,0,0,1-3.35-2,4,4,0,0,1-1.23-3,3.37,3.37,0,0,1,1.55-2.85,6,6,0,0,1,3.59-1.11,4.87,4.87,0,0,1,3.27,1.05,1,1,0,0,0,.6-.64.86.86,0,0,0,.09-.41h1v4h-1.2a3.13,3.13,0,0,0-1.23-2.08,3.81,3.81,0,0,0-2.35-.74,3.48,3.48,0,0,0-2.07.52,1.54,1.54,0,0,0-.73,1.28,1.75,1.75,0,0,0,.83,1.38,9.32,9.32,0,0,0,2.37,1.16c1,.36,1.83.68,2.41.95q2.79,1.37,2.79,3.93c0,1.71-1,2.95-2.86,3.73a6.05,6.05,0,0,1-2.28.45A6.48,6.48,0,0,1,299.24,434.68Z" transform="translate(-37.54 -394.54)"/><path class="a" d="M310.52,428.69a6.92,6.92,0,0,1,7.18-7.25,6.94,6.94,0,0,1,5.11,2,7.08,7.08,0,0,1,2,5.25,7.24,7.24,0,0,1-2,5.28,6.86,6.86,0,0,1-5.11,2,7,7,0,0,1-5.15-2A7.12,7.12,0,0,1,310.52,428.69Zm7.15,6.12q2.74,0,3.23-3.75a20.21,20.21,0,0,0,.13-2.4,11,11,0,0,0-.65-4.31,2.78,2.78,0,0,0-2.71-1.72q-2.75,0-3.23,3.63a19.75,19.75,0,0,0-.13,2.4A11.12,11.12,0,0,0,315,433,2.79,2.79,0,0,0,317.67,434.81Z" transform="translate(-37.54 -394.54)"/><path class="a" d="M339.38,433.71A6.32,6.32,0,0,1,334,436a8,8,0,0,1-2.68-.49,6.88,6.88,0,0,1-2.44-1.45,7,7,0,0,1-2.19-5.38,6.78,6.78,0,0,1,2.14-5.3,7.82,7.82,0,0,1,5.44-1.93,7.39,7.39,0,0,1,3.48.84,2.62,2.62,0,0,1,1.6,2.39,1.82,1.82,0,0,1-.52,1.35,1.56,1.56,0,0,1-1.1.52,2.28,2.28,0,0,1-1.5-.45,1.51,1.51,0,0,1-.53-1.2,1.73,1.73,0,0,1,1-1.71,4.25,4.25,0,0,0-2.33-.65c-2.62,0-3.92,2-3.92,6.12,0,2.88.79,4.73,2.37,5.57a3.92,3.92,0,0,0,1.83.41,5.38,5.38,0,0,0,4-1.57Z" transform="translate(-37.54 -394.54)"/><path class="a" d="M340.59,434.87h2.21V422.56h-2v-1.11h5.62v13.42h2.2V436h-8ZM345.93,418a1.85,1.85,0,0,1-2.65,0,1.64,1.64,0,0,1-.56-1.18,2.26,2.26,0,0,1,.54-1.62,1.79,1.79,0,0,1,1.34-.57,1.74,1.74,0,0,1,1.73,1.19,2.07,2.07,0,0,1-.4,2.18Z" transform="translate(-37.54 -394.54)"/><path class="a" d="M359.48,434.1a5.26,5.26,0,0,1-4.24,1.89,5.37,5.37,0,0,1-3.47-1.17,3.75,3.75,0,0,1-1.46-3.07,3.54,3.54,0,0,1,1.43-3,6.68,6.68,0,0,1,7.45.09v-3.14a3.91,3.91,0,0,0-.41-2.16,2.18,2.18,0,0,0-1-.79,3.19,3.19,0,0,0-1.22-.23,5.74,5.74,0,0,0-1.77.24,2.6,2.6,0,0,0-1,.48,1.52,1.52,0,0,1,1,.9,1.46,1.46,0,0,1,.11.62,1.48,1.48,0,0,1-.54,1.17,1.64,1.64,0,0,1-1.09.47,2.07,2.07,0,0,1-1.48-.49,1.5,1.5,0,0,1-.53-1.17,2.23,2.23,0,0,1,.25-1.13,3,3,0,0,1,.7-.8,5.77,5.77,0,0,1,2.09-1,8.94,8.94,0,0,1,2.36-.35,6.9,6.9,0,0,1,4.53,1.24,4.31,4.31,0,0,1,1.47,3.48v7.3c0,.76.19,1.14.56,1.14a1.43,1.43,0,0,0,1.08-.71l.71.61a3.31,3.31,0,0,1-3,1.49,2.72,2.72,0,0,1-1.49-.49A2.58,2.58,0,0,1,359.48,434.1Zm-.25-4A3.47,3.47,0,0,0,356.7,429a2.85,2.85,0,0,0-2.07.67,2.93,2.93,0,0,0-.69,2.17c0,1.46.49,2.35,1.48,2.67a2.82,2.82,0,0,0,.86.14,3.55,3.55,0,0,0,2.37-1,4.92,4.92,0,0,0,.58-.63Z" transform="translate(-37.54 -394.54)"/><path class="a" d="M377.92,434.51a6.85,6.85,0,0,1-4.8,1.48,6.59,6.59,0,0,1-2.23-.42,5.34,5.34,0,0,1-2-1.31,6.19,6.19,0,0,1-1.39-2.27,9.2,9.2,0,0,1-.51-3.19,7.32,7.32,0,0,1,2-5.39,6.88,6.88,0,0,1,8.15-1.11,4.59,4.59,0,0,1,.85.6v-10h-2.81v-1.11h6.35v23.08h2V436h-5.56Zm-3.6-11.85q-3.56,0-3.56,6.09,0,4.53,1.92,5.7a3.15,3.15,0,0,0,1.7.42,3.84,3.84,0,0,0,2-.55,4.66,4.66,0,0,0,1.57-1.46v-8.5a4.79,4.79,0,0,0-2.66-1.58A4,4,0,0,0,374.32,422.66Z" transform="translate(-37.54 -394.54)"/><path class="a" d="M384.89,428.69a6.93,6.93,0,0,1,7.18-7.25,6.94,6.94,0,0,1,5.11,2,7.08,7.08,0,0,1,2,5.25,7.24,7.24,0,0,1-2,5.28,6.86,6.86,0,0,1-5.11,2,7,7,0,0,1-5.15-2A7.12,7.12,0,0,1,384.89,428.69Zm7.15,6.12q2.74,0,3.23-3.75a20.21,20.21,0,0,0,.13-2.4,10.78,10.78,0,0,0-.65-4.31,2.78,2.78,0,0,0-2.71-1.72q-2.75,0-3.23,3.63a19.75,19.75,0,0,0-.13,2.4,11.31,11.31,0,0,0,.65,4.36A2.79,2.79,0,0,0,392,434.81Z" transform="translate(-37.54 -394.54)"/><path class="a" d="M403.8,434.68a1.84,1.84,0,0,0-.49,1.3H402l.05-4.28h1.25a2.86,2.86,0,0,0,1.32,2.07,5.15,5.15,0,0,0,3.33,1.06c1.34,0,2.19-.4,2.55-1.18a1.78,1.78,0,0,0,.15-.71q0-.69-.93-1.26a17.13,17.13,0,0,0-3.06-1.34,9.34,9.34,0,0,1-3.36-2,4,4,0,0,1-1.22-3,3.34,3.34,0,0,1,1.55-2.85,6,6,0,0,1,3.59-1.11,4.88,4.88,0,0,1,3.27,1.05,1.06,1.06,0,0,0,.6-.64,1,1,0,0,0,.08-.41h1v4H411a3.21,3.21,0,0,0-1.23-2.08,3.81,3.81,0,0,0-2.35-.74,3.53,3.53,0,0,0-2.08.52,1.56,1.56,0,0,0-.73,1.28,1.74,1.74,0,0,0,.84,1.38,9.32,9.32,0,0,0,2.37,1.16c1,.36,1.82.68,2.4.95q2.79,1.37,2.79,3.93t-2.86,3.73a6,6,0,0,1-2.27.45A6.51,6.51,0,0,1,403.8,434.68Z" transform="translate(-37.54 -394.54)"/><path class="a" d="M176,456.85v1h-7.24V447.14h7v1H169.8v3.8h5.3v1h-5.3v4Z" transform="translate(-37.54 -394.54)"/><path class="a" d="M179.15,457.54a4,4,0,0,1-1.62-1l.42-.87a4.05,4.05,0,0,0,1.48.94,5.21,5.21,0,0,0,1.9.36,3.39,3.39,0,0,0,2.07-.53,1.65,1.65,0,0,0,.69-1.37,1.4,1.4,0,0,0-.38-1,2.6,2.6,0,0,0-.91-.59c-.36-.13-.87-.29-1.51-.45a13.93,13.93,0,0,1-1.84-.59,2.87,2.87,0,0,1-1.18-.86,2.34,2.34,0,0,1-.49-1.57,2.67,2.67,0,0,1,.41-1.47,2.8,2.8,0,0,1,1.26-1.07,5,5,0,0,1,2.1-.39,5.87,5.87,0,0,1,1.72.25,5.06,5.06,0,0,1,1.46.69l-.37.9a5.09,5.09,0,0,0-1.37-.66,4.89,4.89,0,0,0-1.44-.22,3.2,3.2,0,0,0-2,.54,1.69,1.69,0,0,0-.68,1.4,1.42,1.42,0,0,0,.37,1,2.32,2.32,0,0,0,.94.59c.37.14.88.29,1.51.46a13.84,13.84,0,0,1,1.82.57,3,3,0,0,1,1.18.85,2.34,2.34,0,0,1,.48,1.55,2.73,2.73,0,0,1-.41,1.48,2.88,2.88,0,0,1-1.28,1,5.2,5.2,0,0,1-2.13.39A6.37,6.37,0,0,1,179.15,457.54Z" transform="translate(-37.54 -394.54)"/><path class="a" d="M189.36,448.12h-3.61v-1H194v1h-3.6v9.71h-1.08Z" transform="translate(-37.54 -394.54)"/><path class="a" d="M196.59,456.73a4.92,4.92,0,0,1-1.12-3.47v-6.12h1.09v6.08a4.13,4.13,0,0,0,.8,2.77,3.42,3.42,0,0,0,4.67,0,4.07,4.07,0,0,0,.81-2.77v-6.08h1v6.12a5,5,0,0,1-1.1,3.47,4.63,4.63,0,0,1-6.2,0Z" transform="translate(-37.54 -394.54)"/><path class="a" d="M207.15,447.14h4.18a5.94,5.94,0,0,1,2.87.68,4.87,4.87,0,0,1,1.93,1.89,5.91,5.91,0,0,1,0,5.54,5,5,0,0,1-1.93,1.9,5.94,5.94,0,0,1-2.87.68h-4.18Zm4.12,9.71a4.78,4.78,0,0,0,2.35-.56,3.88,3.88,0,0,0,1.57-1.54,4.86,4.86,0,0,0,0-4.53,4,4,0,0,0-1.57-1.55,4.77,4.77,0,0,0-2.35-.55h-3v8.73Z" transform="translate(-37.54 -394.54)"/><path class="a" d="M219.25,447.14h1.08v10.69h-1.08Z" transform="translate(-37.54 -394.54)"/><path class="a" d="M225.39,457.21a5.12,5.12,0,0,1-1.94-1.95,5.95,5.95,0,0,1,0-5.56,5.09,5.09,0,0,1,1.94-1.94,5.34,5.34,0,0,1,2.75-.71,5.41,5.41,0,0,1,2.75.7,5.07,5.07,0,0,1,1.92,1.95,5.82,5.82,0,0,1,0,5.57,5.07,5.07,0,0,1-1.92,2,5.51,5.51,0,0,1-2.75.7A5.44,5.44,0,0,1,225.39,457.21Zm5-.87a4.06,4.06,0,0,0,1.54-1.59,4.94,4.94,0,0,0,0-4.53,4.06,4.06,0,0,0-1.54-1.59,4.53,4.53,0,0,0-4.4,0,4.09,4.09,0,0,0-1.55,1.59,4.86,4.86,0,0,0,0,4.53,4.09,4.09,0,0,0,1.55,1.59,4.53,4.53,0,0,0,4.4,0Z" transform="translate(-37.54 -394.54)"/><path class="a" d="M239.25,457.52a3.19,3.19,0,0,1-1.21-1.13l.64-.76a2.57,2.57,0,0,0,2.21,1.31c1.27,0,1.91-.78,1.91-2.35v-6.47h-3.75v-1h4.81v7.4a3.71,3.71,0,0,1-.75,2.53,2.82,2.82,0,0,1-2.23.85A3.36,3.36,0,0,1,239.25,457.52Z" transform="translate(-37.54 -394.54)"/><path class="a" d="M248.14,456.73a4.92,4.92,0,0,1-1.11-3.47v-6.12h1.08v6.08a4.13,4.13,0,0,0,.8,2.77,3.42,3.42,0,0,0,4.67,0,4.07,4.07,0,0,0,.81-2.77v-6.08h1.05v6.12a5,5,0,0,1-1.1,3.47,4.63,4.63,0,0,1-6.2,0Z" transform="translate(-37.54 -394.54)"/><path class="a" d="M265.7,457.83l-2.34-3.44a7.08,7.08,0,0,1-.82.05h-2.75v3.39h-1.08V447.14h3.83a4.54,4.54,0,0,1,3.08,1,3.38,3.38,0,0,1,1.11,2.68,3.56,3.56,0,0,1-.61,2.12,3.34,3.34,0,0,1-1.73,1.24l2.5,3.67Zm-.86-5.06a2.82,2.82,0,0,0,0-4,3.48,3.48,0,0,0-2.33-.69h-2.72v5.36h2.72A3.43,3.43,0,0,0,264.84,452.77Z" transform="translate(-37.54 -394.54)"/><path class="a" d="M270.89,444.38h1.39l-2.38,1.89h-1Zm-1.6,2.76h1.08v10.69h-1.08Z" transform="translate(-37.54 -394.54)"/><path class="a" d="M273.71,447.14h4.17a5.91,5.91,0,0,1,2.87.68,4.81,4.81,0,0,1,1.93,1.89,5.91,5.91,0,0,1,0,5.54,4.9,4.9,0,0,1-1.93,1.9,5.91,5.91,0,0,1-2.87.68h-4.17Zm4.11,9.71a4.82,4.82,0,0,0,2.36-.56,3.94,3.94,0,0,0,1.57-1.54,4.94,4.94,0,0,0,0-4.53,4,4,0,0,0-1.57-1.55,4.81,4.81,0,0,0-2.36-.55h-3v8.73Z" transform="translate(-37.54 -394.54)"/><path class="a" d="M285.8,447.14h1.08v10.69H285.8Z" transform="translate(-37.54 -394.54)"/><path class="a" d="M291.93,457.22a5,5,0,0,1-1.92-2,5.89,5.89,0,0,1,0-5.57,5,5,0,0,1,1.92-1.95,5.45,5.45,0,0,1,2.76-.7,5.53,5.53,0,0,1,2.1.39,4.4,4.4,0,0,1,1.64,1.17l-.69.71a4,4,0,0,0-3-1.26,4.29,4.29,0,0,0-2.21.58,4.06,4.06,0,0,0-1.55,1.58,4.54,4.54,0,0,0-.57,2.26,4.49,4.49,0,0,0,.57,2.26,4.15,4.15,0,0,0,1.55,1.59,4.29,4.29,0,0,0,2.21.58,4,4,0,0,0,3-1.28l.69.72a4.58,4.58,0,0,1-1.64,1.16,5.7,5.7,0,0,1-4.86-.29Z" transform="translate(-37.54 -394.54)"/><path class="a" d="M302.24,457.21a5.16,5.16,0,0,1-1.93-1.95,5.95,5.95,0,0,1,0-5.56,5.14,5.14,0,0,1,1.93-1.94,5.74,5.74,0,0,1,5.51,0,5.07,5.07,0,0,1,1.92,1.95,5.82,5.82,0,0,1,0,5.57,5.07,5.07,0,0,1-1.92,2,5.74,5.74,0,0,1-5.51,0Zm5-.87a4.06,4.06,0,0,0,1.54-1.59,4.94,4.94,0,0,0,0-4.53,4.06,4.06,0,0,0-1.54-1.59,4.53,4.53,0,0,0-4.4,0,4.09,4.09,0,0,0-1.55,1.59,4.86,4.86,0,0,0,0,4.53,4.09,4.09,0,0,0,1.55,1.59,4.53,4.53,0,0,0,4.4,0Z" transform="translate(-37.54 -394.54)"/><path class="a" d="M316.64,447.14h1.08v10.69h-1.08Z" transform="translate(-37.54 -394.54)"/><path class="a" d="M329.62,447.14v10.69h-.89l-6.59-8.68v8.68h-1.08V447.14H322l6.61,8.67v-8.67Z" transform="translate(-37.54 -394.54)"/><path class="a" d="M335,448.12h-3.6v-1h8.29v1H336v9.71H335Z" transform="translate(-37.54 -394.54)"/><path class="a" d="M348.61,456.85v1h-7.25V447.14h7v1h-5.94v3.8h5.29v1h-5.29v4Z" transform="translate(-37.54 -394.54)"/><path class="a" d="M358.31,452.48h1v4.08a5,5,0,0,1-1.7,1,6.15,6.15,0,0,1-2.06.35,5.59,5.59,0,0,1-2.77-.7,5.09,5.09,0,0,1-1.93-2,5.89,5.89,0,0,1,0-5.57,5.09,5.09,0,0,1,1.93-1.95,5.51,5.51,0,0,1,2.79-.7,5.79,5.79,0,0,1,2.15.39,4.28,4.28,0,0,1,1.65,1.15l-.67.72a4.1,4.1,0,0,0-3.09-1.25,4.48,4.48,0,0,0-2.25.57,4.07,4.07,0,0,0-1.57,1.59,4.77,4.77,0,0,0,0,4.52,4.2,4.2,0,0,0,1.57,1.59,4.69,4.69,0,0,0,4.91-.24Z" transform="translate(-37.54 -394.54)"/><path class="a" d="M369.41,457.83l-2.34-3.44a7.37,7.37,0,0,1-.82.05h-2.76v3.39h-1.08V447.14h3.84a4.51,4.51,0,0,1,3.07,1,3.38,3.38,0,0,1,1.11,2.68,3.63,3.63,0,0,1-.6,2.12,3.41,3.41,0,0,1-1.74,1.24l2.5,3.67Zm-.86-5.06a2.85,2.85,0,0,0,0-4,3.5,3.5,0,0,0-2.33-.69h-2.73v5.36h2.73A3.45,3.45,0,0,0,368.55,452.77Z" transform="translate(-37.54 -394.54)"/><path class="a" d="M379.42,455h-5.71l-1.23,2.86h-1.12L376,447.14h1.07l4.68,10.69h-1.14Zm-.39-.91-2.46-5.74-2.46,5.74Z" transform="translate(-37.54 -394.54)"/><path class="a" d="M383.49,447.14h1.08v9.71h5.74v1h-6.82Z" transform="translate(-37.54 -394.54)"/><polygon class="a" points="40.23 0 71.01 77.31 40.23 0 40.23 0"/><polygon class="a" points="109.12 77.31 78.34 0 72.42 0 58.32 37.85 60.99 44.55 70.68 17.78 85.18 54.58 64.98 54.58 66.63 58.73 86.81 58.73 94.17 77.31 86.51 77.31 86.51 81.47 114.33 81.47 114.33 77.31 109.12 77.31"/><path class="a" d="M71.85,394.54l-28.8,77.31H37.54V476H57.71v-4.15H48.52l6.74-18.58h31l7.36,18.58H85.94V476h27.82v-4.15h-5.21L77.77,394.54Zm12.76,54.57H56.79l13.32-36.79,14.5,36.79Z" transform="translate(-37.54 -394.54)"/></svg>