<svg xmlns="http://www.w3.org/2000/svg" width="268.15" height="135.98" viewBox="0 0 268.15 135.98"><defs><style>.a{fill:#fff;}</style></defs><path class="a" d="M87.82,659.7h1.47L97,639.09h1.58l8.21,20.61h1.39v1.11h-7.42V659.7h2l-2-5H92.54l-1.79,5H93.2v1.11H87.82Zm12.55-6.06-3.86-9.81L93,653.64Z" transform="translate(-87.82 -546.78)"/><path class="a" d="M122,658.54a6.32,6.32,0,0,1-5.36,2.28,8,8,0,0,1-2.68-.49,6.8,6.8,0,0,1-4.63-6.83,6.76,6.76,0,0,1,2.14-5.29,7.83,7.83,0,0,1,5.44-1.94,7.28,7.28,0,0,1,3.48.85,2.6,2.6,0,0,1,1.6,2.38,1.82,1.82,0,0,1-.52,1.35,1.52,1.52,0,0,1-1.1.52,2.33,2.33,0,0,1-1.5-.44,1.51,1.51,0,0,1-.53-1.21,1.71,1.71,0,0,1,1-1.7,4.18,4.18,0,0,0-2.33-.66c-2.62,0-3.92,2-3.92,6.13,0,2.87.79,4.73,2.37,5.56a3.92,3.92,0,0,0,1.83.41,5.32,5.32,0,0,0,4-1.57Z" transform="translate(-87.82 -546.78)"/><path class="a" d="M134.47,659.42a6.21,6.21,0,0,1-3.91,1.4A6.83,6.83,0,0,1,127,660a4.36,4.36,0,0,1-2-4.05v-8.52h-1.93v-1.11h5.47v10.45c0,2,.89,3,2.66,3a4.24,4.24,0,0,0,3.29-1.76V647.39h-2.35v-1.11H138v13.45h1.75v1.08h-5.27Z" transform="translate(-87.82 -546.78)"/><path class="a" d="M151.52,647.62a5.14,5.14,0,0,0-4,2.23v9.85H150v1.11h-8.22V659.7H144V647.62h-2.22v-1.34h5.76v2.18a6.23,6.23,0,0,1,4.67-2.19,5.59,5.59,0,0,1,3.21,1,4.38,4.38,0,0,1,1.82,3.91v8.57h2.2v1.11h-8.22V659.7h2.48v-8.83a5,5,0,0,0-.34-2.22,2,2,0,0,0-.75-.81A2.15,2.15,0,0,0,151.52,647.62Zm4.06-7.85q-1.52,3.45-3.56,3.45a3.21,3.21,0,0,1-1.67-.57c-.6-.38-1.06-.65-1.38-.82a2.05,2.05,0,0,0-1-.26,1.4,1.4,0,0,0-.94.39,7.54,7.54,0,0,0-.94,1l-.62-.52a12.57,12.57,0,0,1,1.29-2.1,2.93,2.93,0,0,1,2-1.28,3.61,3.61,0,0,1,1.84.53c.6.36,1,.63,1.35.79a1.7,1.7,0,0,0,.87.25,2,2,0,0,0,1.71-.86,6.18,6.18,0,0,0,.36-.53Z" transform="translate(-87.82 -546.78)"/><path class="a" d="M170,658.94a5.26,5.26,0,0,1-4.24,1.88,5.37,5.37,0,0,1-3.47-1.17,3.73,3.73,0,0,1-1.45-3.06,3.54,3.54,0,0,1,1.43-3,6.69,6.69,0,0,1,7.44.1v-3.14a3.93,3.93,0,0,0-.41-2.17,2.25,2.25,0,0,0-1-.79,3.14,3.14,0,0,0-1.21-.22,6,6,0,0,0-1.77.23,2.67,2.67,0,0,0-1,.48,1.55,1.55,0,0,1,1,.9,1.67,1.67,0,0,1,.11.62,1.51,1.51,0,0,1-.55,1.18,1.69,1.69,0,0,1-1.09.47,2.08,2.08,0,0,1-1.48-.49,1.53,1.53,0,0,1-.53-1.18,2.15,2.15,0,0,1,.26-1.13,2.88,2.88,0,0,1,.69-.8,5.76,5.76,0,0,1,2.09-1,8.63,8.63,0,0,1,2.36-.36,6.9,6.9,0,0,1,4.53,1.25A4.31,4.31,0,0,1,173.2,651v7.3c0,.75.19,1.13.56,1.13a1.39,1.39,0,0,0,1.08-.71l.71.61a3.29,3.29,0,0,1-3,1.49,2.72,2.72,0,0,1-1.49-.49A2.55,2.55,0,0,1,170,658.94Zm-.25-4a3.47,3.47,0,0,0-2.53-1.18,2.85,2.85,0,0,0-2.07.68,2.92,2.92,0,0,0-.69,2.16c0,1.47.49,2.36,1.48,2.67a2.54,2.54,0,0,0,.86.14,3.59,3.59,0,0,0,2.37-1,4.36,4.36,0,0,0,.58-.64Z" transform="translate(-87.82 -546.78)"/><path class="a" d="M202.3,656.18c1.76,1.8,3.16,2.7,4.22,2.7a2.16,2.16,0,0,0,1.29-.36l.51.73a4.16,4.16,0,0,1-3.5,1.57,6.73,6.73,0,0,1-4.48-2,7.75,7.75,0,0,1-5.4,2,9.48,9.48,0,0,1-5.55-1.6,5,5,0,0,1-2.31-4.3,5.6,5.6,0,0,1,1.47-3.88,6.88,6.88,0,0,1,3-2c-1.53-1.89-2.29-3.58-2.29-5.09a4.14,4.14,0,0,1,1.89-3.58,7,7,0,0,1,4.12-1.31,7.14,7.14,0,0,1,3.7.87,3,3,0,0,1,1.59,2.34,1.82,1.82,0,0,1-.52,1.75,1.81,1.81,0,0,1-1.33.56,1.77,1.77,0,0,1-1.32-.56,1.75,1.75,0,0,1-.56-1.24A1.87,1.87,0,0,1,198,641a3.3,3.3,0,0,0-2.36-.79,3.2,3.2,0,0,0-2.31.77,2.71,2.71,0,0,0-.8,2.08q0,2,2.79,5.33,5.31,6,6,6.8a14.12,14.12,0,0,0,1-5.54H200v-1.11h5.91v1.11h-2.18A15.35,15.35,0,0,1,202.3,656.18Zm-11.74-3a6.3,6.3,0,0,0-.19,1.59,4.48,4.48,0,0,0,1.4,3.32,5,5,0,0,0,3.68,1.38,5.73,5.73,0,0,0,4-1.51c-.72-.73-1.45-1.55-2.2-2.46l-2.48-2.86c-1.14-1.24-1.9-2.1-2.29-2.56A5.79,5.79,0,0,0,190.56,653.19Z" transform="translate(-87.82 -546.78)"/><path class="a" d="M217.94,659.7h1.47l7.68-20.61h1.58l8.21,20.61h1.39v1.11h-7.42V659.7h2l-2-5h-8.27l-1.79,5h2.45v1.11h-5.38Zm12.55-6.06-3.86-9.81-3.56,9.81Z" transform="translate(-87.82 -546.78)"/><path class="a" d="M242.17,659.52a1.83,1.83,0,0,0-.49,1.29h-1.3l.05-4.27h1.25A2.83,2.83,0,0,0,243,658.6a5.08,5.08,0,0,0,3.32,1.06c1.35,0,2.2-.39,2.56-1.18a1.74,1.74,0,0,0,.15-.71q0-.69-.93-1.26a17.9,17.9,0,0,0-3.06-1.34,9.07,9.07,0,0,1-3.36-2,4,4,0,0,1-1.22-3,3.36,3.36,0,0,1,1.55-2.85,6,6,0,0,1,3.59-1.11,4.9,4.9,0,0,1,3.27,1.05,1.1,1.1,0,0,0,.6-.63,1.08,1.08,0,0,0,.08-.42h1v4h-1.2a3.19,3.19,0,0,0-1.23-2.08,3.81,3.81,0,0,0-2.35-.75,3.53,3.53,0,0,0-2.08.53,1.56,1.56,0,0,0-.73,1.28,1.72,1.72,0,0,0,.84,1.37,9,9,0,0,0,2.37,1.17c1,.36,1.82.68,2.4,1a4.25,4.25,0,0,1,2.79,3.92c0,1.71-1,3-2.86,3.73a6,6,0,0,1-2.27.45A6.5,6.5,0,0,1,242.17,659.52Z" transform="translate(-87.82 -546.78)"/><path class="a" d="M253.46,653.52a6.92,6.92,0,0,1,7.18-7.25,6.93,6.93,0,0,1,5.1,2,7.06,7.06,0,0,1,2,5.24,7.2,7.2,0,0,1-2,5.28,6.84,6.84,0,0,1-5.11,2,7,7,0,0,1-5.16-2A7.14,7.14,0,0,1,253.46,653.52Zm7.15,6.13c1.83,0,2.9-1.26,3.22-3.76a19.89,19.89,0,0,0,.14-2.4,10.78,10.78,0,0,0-.66-4.31,2.77,2.77,0,0,0-2.7-1.72c-1.84,0-2.91,1.21-3.23,3.63a19.89,19.89,0,0,0-.14,2.4,11.15,11.15,0,0,0,.66,4.37A2.78,2.78,0,0,0,260.61,659.65Z" transform="translate(-87.82 -546.78)"/><path class="a" d="M282.32,658.54a6.32,6.32,0,0,1-5.36,2.28,8.08,8.08,0,0,1-2.69-.49,6.83,6.83,0,0,1-4.63-6.83,6.76,6.76,0,0,1,2.15-5.29,7.81,7.81,0,0,1,5.44-1.94,7.28,7.28,0,0,1,3.48.85,2.62,2.62,0,0,1,1.6,2.38,1.86,1.86,0,0,1-.52,1.35,1.54,1.54,0,0,1-1.1.52,2.29,2.29,0,0,1-1.5-.44,1.48,1.48,0,0,1-.53-1.21,1.71,1.71,0,0,1,1-1.7,4.16,4.16,0,0,0-2.33-.66q-3.92,0-3.92,6.13c0,2.87.79,4.73,2.37,5.56a4,4,0,0,0,1.84.41,5.32,5.32,0,0,0,4-1.57Z" transform="translate(-87.82 -546.78)"/><path class="a" d="M283.53,659.7h2.21V647.39h-2v-1.11h5.62V659.7h2.21v1.11h-8Zm5.34-16.88a1.78,1.78,0,0,1-1.32.57,1.84,1.84,0,0,1-1.34-.56,1.7,1.7,0,0,1-.56-1.19,2.27,2.27,0,0,1,.55-1.62,1.77,1.77,0,0,1,1.33-.57,1.73,1.73,0,0,1,1.73,1.2,1.91,1.91,0,0,1,.15.76A2,2,0,0,1,288.87,642.82Z" transform="translate(-87.82 -546.78)"/><path class="a" d="M302.41,658.94a5.24,5.24,0,0,1-4.23,1.88,5.37,5.37,0,0,1-3.47-1.17,3.74,3.74,0,0,1-1.46-3.06,3.56,3.56,0,0,1,1.43-3,6.71,6.71,0,0,1,7.45.1v-3.14a4,4,0,0,0-.41-2.17,2.25,2.25,0,0,0-1-.79,3.19,3.19,0,0,0-1.22-.22,6,6,0,0,0-1.77.23,2.76,2.76,0,0,0-1,.48,1.55,1.55,0,0,1,1,.9,1.67,1.67,0,0,1,.11.62,1.5,1.5,0,0,1-.54,1.18,1.71,1.71,0,0,1-1.09.47,2.11,2.11,0,0,1-1.49-.49,1.57,1.57,0,0,1-.53-1.18,2.25,2.25,0,0,1,.26-1.13,2.88,2.88,0,0,1,.69-.8,5.84,5.84,0,0,1,2.09-1,8.64,8.64,0,0,1,2.37-.36,6.9,6.9,0,0,1,4.53,1.25,4.31,4.31,0,0,1,1.47,3.48v7.3c0,.75.19,1.13.56,1.13a1.37,1.37,0,0,0,1.07-.71l.71.61a3.27,3.27,0,0,1-3,1.49,2.69,2.69,0,0,1-1.49-.49A2.52,2.52,0,0,1,302.41,658.94Zm-.24-4a3.49,3.49,0,0,0-2.53-1.18,2.46,2.46,0,0,0-2.77,2.84c0,1.47.5,2.36,1.49,2.67a2.49,2.49,0,0,0,.85.14,3.55,3.55,0,0,0,2.37-1,4.43,4.43,0,0,0,.59-.64Z" transform="translate(-87.82 -546.78)"/><path class="a" d="M320.86,659.34a6.86,6.86,0,0,1-4.81,1.48,6.76,6.76,0,0,1-2.22-.41,5.29,5.29,0,0,1-2-1.32,6.19,6.19,0,0,1-1.39-2.27,9.16,9.16,0,0,1-.51-3.19,7.26,7.26,0,0,1,2-5.38,6.55,6.55,0,0,1,4.82-2,6.65,6.65,0,0,1,3.32.86,4.27,4.27,0,0,1,.86.61v-10H318v-1.11h6.36V659.7h2v1.11h-5.55Zm-3.61-11.85q-3.56,0-3.55,6.09,0,4.53,1.92,5.71a3.2,3.2,0,0,0,1.69.41,3.93,3.93,0,0,0,2-.54,4.79,4.79,0,0,0,1.57-1.47v-8.5a4.88,4.88,0,0,0-2.67-1.58A4,4,0,0,0,317.25,647.49Z" transform="translate(-87.82 -546.78)"/><path class="a" d="M327.83,653.52a6.92,6.92,0,0,1,7.18-7.25,7,7,0,0,1,5.11,2,7.09,7.09,0,0,1,2,5.24,7.2,7.2,0,0,1-2,5.28,6.83,6.83,0,0,1-5.11,2,7,7,0,0,1-5.16-2A7.14,7.14,0,0,1,327.83,653.52Zm7.15,6.13c1.83,0,2.91-1.26,3.22-3.76a19.89,19.89,0,0,0,.14-2.4,11,11,0,0,0-.65-4.31,2.79,2.79,0,0,0-2.71-1.72c-1.84,0-2.91,1.21-3.23,3.63a19.89,19.89,0,0,0-.14,2.4,11.15,11.15,0,0,0,.66,4.37A2.78,2.78,0,0,0,335,659.65Z" transform="translate(-87.82 -546.78)"/><path class="a" d="M346.74,659.52a1.83,1.83,0,0,0-.49,1.29h-1.31l.06-4.27h1.25a2.84,2.84,0,0,0,1.31,2.06,5.13,5.13,0,0,0,3.33,1.06c1.34,0,2.2-.39,2.56-1.18a1.74,1.74,0,0,0,.15-.71q0-.69-.93-1.26a17.72,17.72,0,0,0-3.07-1.34,9,9,0,0,1-3.35-2,4,4,0,0,1-1.23-3,3.37,3.37,0,0,1,1.56-2.85,6,6,0,0,1,3.58-1.11,4.91,4.91,0,0,1,3.28,1.05,1.1,1.1,0,0,0,.6-.63,1.08,1.08,0,0,0,.08-.42h1v4H354a3.11,3.11,0,0,0-1.23-2.08,3.79,3.79,0,0,0-2.35-.75,3.5,3.5,0,0,0-2.07.53,1.54,1.54,0,0,0-.73,1.28,1.72,1.72,0,0,0,.84,1.37,8.68,8.68,0,0,0,2.37,1.17c1,.36,1.82.68,2.4,1a4.25,4.25,0,0,1,2.79,3.92c0,1.71-1,3-2.86,3.73a6,6,0,0,1-2.27.45A6.48,6.48,0,0,1,346.74,659.52Z" transform="translate(-87.82 -546.78)"/><path class="a" d="M118.9,681.68v1h-7.25V672h7v1h-5.94v3.8H118v1h-5.29v4Z" transform="translate(-87.82 -546.78)"/><path class="a" d="M122.08,682.37a4,4,0,0,1-1.62-1l.43-.87a4,4,0,0,0,1.48.94,5.17,5.17,0,0,0,1.9.36,3.34,3.34,0,0,0,2.06-.53,1.63,1.63,0,0,0,.69-1.36,1.42,1.42,0,0,0-.37-1,2.49,2.49,0,0,0-.92-.58,13.12,13.12,0,0,0-1.5-.45,16.52,16.52,0,0,1-1.85-.59,3.13,3.13,0,0,1-1.18-.86,2.43,2.43,0,0,1-.49-1.58,2.76,2.76,0,0,1,.41-1.47,2.9,2.9,0,0,1,1.26-1.06,4.9,4.9,0,0,1,2.11-.4,6.28,6.28,0,0,1,1.72.25,4.83,4.83,0,0,1,1.46.7l-.37.9a4.61,4.61,0,0,0-1.38-.66,4.8,4.8,0,0,0-1.43-.23,3.17,3.17,0,0,0-2,.55,1.7,1.7,0,0,0-.68,1.39,1.42,1.42,0,0,0,.38,1,2.41,2.41,0,0,0,.93.6,15.12,15.12,0,0,0,1.52.45,13.84,13.84,0,0,1,1.82.57,3,3,0,0,1,1.18.86,2.32,2.32,0,0,1,.48,1.55,2.68,2.68,0,0,1-.42,1.47,2.83,2.83,0,0,1-1.28,1.05,5.11,5.11,0,0,1-2.12.39A6.47,6.47,0,0,1,122.08,682.37Z" transform="translate(-87.82 -546.78)"/><path class="a" d="M132.29,673h-3.6v-1H137v1h-3.61v9.71h-1.08Z" transform="translate(-87.82 -546.78)"/><path class="a" d="M139.52,681.56a4.89,4.89,0,0,1-1.11-3.46V672h1.08v6.08a4.1,4.1,0,0,0,.81,2.78,2.92,2.92,0,0,0,2.33.91,3,3,0,0,0,2.34-.91,4.15,4.15,0,0,0,.8-2.78V672h1.06v6.13a4.89,4.89,0,0,1-1.11,3.46,4.63,4.63,0,0,1-6.2,0Z" transform="translate(-87.82 -546.78)"/><path class="a" d="M150.09,672h4.17a5.91,5.91,0,0,1,2.87.68,4.9,4.9,0,0,1,1.93,1.9,5.91,5.91,0,0,1,0,5.54,4.81,4.81,0,0,1-1.93,1.89,5.91,5.91,0,0,1-2.87.68h-4.17Zm4.11,9.71a4.81,4.81,0,0,0,2.36-.55,4,4,0,0,0,1.57-1.55,4.94,4.94,0,0,0,0-4.53,3.94,3.94,0,0,0-1.57-1.54,4.82,4.82,0,0,0-2.36-.56h-3v8.73Z" transform="translate(-87.82 -546.78)"/><path class="a" d="M162.18,672h1.08v10.69h-1.08Z" transform="translate(-87.82 -546.78)"/><path class="a" d="M168.32,682a5.07,5.07,0,0,1-1.93-1.94,5.87,5.87,0,0,1,0-5.56,5.09,5.09,0,0,1,1.93-1.95,5.51,5.51,0,0,1,2.76-.71,5.45,5.45,0,0,1,2.74.7,5.09,5.09,0,0,1,1.93,1.95,5.89,5.89,0,0,1,0,5.57,5.09,5.09,0,0,1-1.93,1.95,5.35,5.35,0,0,1-2.74.7A5.41,5.41,0,0,1,168.32,682Zm5-.87a4,4,0,0,0,1.53-1.59,4.86,4.86,0,0,0,0-4.53,4,4,0,0,0-1.53-1.59,4.53,4.53,0,0,0-4.4,0,4,4,0,0,0-1.55,1.59,4.79,4.79,0,0,0,0,4.53,4,4,0,0,0,1.55,1.59,4.53,4.53,0,0,0,4.4,0Z" transform="translate(-87.82 -546.78)"/><path class="a" d="M182.19,682.35a3.12,3.12,0,0,1-1.21-1.13l.64-.76a2.53,2.53,0,0,0,2.21,1.32c1.27,0,1.9-.79,1.9-2.36V673H182v-1h4.81v7.41a3.68,3.68,0,0,1-.75,2.52,2.84,2.84,0,0,1-2.24.85A3.35,3.35,0,0,1,182.19,682.35Z" transform="translate(-87.82 -546.78)"/><path class="a" d="M191.07,681.56A4.89,4.89,0,0,1,190,678.1V672h1.09v6.08a4.1,4.1,0,0,0,.8,2.78,3.45,3.45,0,0,0,4.67,0,4.1,4.1,0,0,0,.8-2.78V672h1.06v6.13a4.89,4.89,0,0,1-1.11,3.46,4,4,0,0,1-3.09,1.19A4.08,4.08,0,0,1,191.07,681.56Z" transform="translate(-87.82 -546.78)"/><path class="a" d="M208.64,682.66l-2.34-3.43a7.38,7.38,0,0,1-.82,0h-2.75v3.39h-1.09V672h3.84a4.49,4.49,0,0,1,3.07,1,3.4,3.4,0,0,1,1.11,2.69,3.6,3.6,0,0,1-.6,2.11,3.42,3.42,0,0,1-1.74,1.25l2.51,3.66Zm-.86-5a2.85,2.85,0,0,0,0-4,3.45,3.45,0,0,0-2.33-.7h-2.72v5.36h2.72A3.45,3.45,0,0,0,207.78,677.61Z" transform="translate(-87.82 -546.78)"/><path class="a" d="M213.82,669.21h1.39l-2.37,1.89h-1ZM212.23,672h1.08v10.69h-1.08Z" transform="translate(-87.82 -546.78)"/><path class="a" d="M216.65,672h4.17a5.94,5.94,0,0,1,2.87.68,4.9,4.9,0,0,1,1.93,1.9,5.91,5.91,0,0,1,0,5.54,4.81,4.81,0,0,1-1.93,1.89,5.94,5.94,0,0,1-2.87.68h-4.17Zm4.11,9.71a4.84,4.84,0,0,0,2.36-.55,4,4,0,0,0,1.56-1.55,4.86,4.86,0,0,0,0-4.53,3.92,3.92,0,0,0-1.56-1.54,4.84,4.84,0,0,0-2.36-.56h-3v8.73Z" transform="translate(-87.82 -546.78)"/><path class="a" d="M228.74,672h1.08v10.69h-1.08Z" transform="translate(-87.82 -546.78)"/><path class="a" d="M234.86,682.05a5.14,5.14,0,0,1-1.92-1.95,6,6,0,0,1,0-5.57,5.09,5.09,0,0,1,1.93-1.95,5.54,5.54,0,0,1,2.75-.7,5.4,5.4,0,0,1,2.11.4,4.34,4.34,0,0,1,1.64,1.16l-.69.72a4,4,0,0,0-3-1.27,4.24,4.24,0,0,0-3.77,2.17,4.59,4.59,0,0,0-.56,2.26,4.64,4.64,0,0,0,.56,2.26,4.15,4.15,0,0,0,1.56,1.58,4.27,4.27,0,0,0,2.21.58,3.92,3.92,0,0,0,3-1.28l.69.72a4.44,4.44,0,0,1-1.65,1.17,5.76,5.76,0,0,1-4.86-.3Z" transform="translate(-87.82 -546.78)"/><path class="a" d="M245.18,682a5.07,5.07,0,0,1-1.93-1.94,5.87,5.87,0,0,1,0-5.56,5.09,5.09,0,0,1,1.93-1.95,5.74,5.74,0,0,1,5.51,0,5.14,5.14,0,0,1,1.92,1.95,5.89,5.89,0,0,1,0,5.57,5.14,5.14,0,0,1-1.92,1.95,5.74,5.74,0,0,1-5.51,0Zm5-.87a4,4,0,0,0,1.53-1.59,4.86,4.86,0,0,0,0-4.53,4,4,0,0,0-1.53-1.59,4.53,4.53,0,0,0-4.4,0,4,4,0,0,0-1.55,1.59,4.79,4.79,0,0,0,0,4.53,4,4,0,0,0,1.55,1.59,4.53,4.53,0,0,0,4.4,0Z" transform="translate(-87.82 -546.78)"/><path class="a" d="M259.58,672h1.08v10.69h-1.08Z" transform="translate(-87.82 -546.78)"/><path class="a" d="M272.56,672v10.69h-.89L265.08,674v8.67H264V672h.89l6.6,8.68V672Z" transform="translate(-87.82 -546.78)"/><path class="a" d="M277.89,673h-3.6v-1h8.28v1H279v9.71h-1.08Z" transform="translate(-87.82 -546.78)"/><path class="a" d="M291.54,681.68v1H284.3V672h7v1h-5.95v3.8h5.3v1h-5.3v4Z" transform="translate(-87.82 -546.78)"/><path class="a" d="M301.25,677.32h1v4.07a4.92,4.92,0,0,1-1.7,1,6.15,6.15,0,0,1-2.06.35,5.46,5.46,0,0,1-2.77-.7,5.09,5.09,0,0,1-1.93-1.95,5.89,5.89,0,0,1,0-5.57,5.09,5.09,0,0,1,1.93-1.95,5.6,5.6,0,0,1,2.78-.7,5.75,5.75,0,0,1,2.15.39,4.35,4.35,0,0,1,1.66,1.15l-.68.72a4.13,4.13,0,0,0-3.08-1.25,4.48,4.48,0,0,0-2.25.57,4.07,4.07,0,0,0-1.57,1.59,4.71,4.71,0,0,0,0,4.53,4.15,4.15,0,0,0,1.56,1.58,4.71,4.71,0,0,0,4.92-.24Z" transform="translate(-87.82 -546.78)"/><path class="a" d="M312.34,682.66,310,679.23a7.15,7.15,0,0,1-.82,0h-2.75v3.39h-1.08V672h3.83a4.52,4.52,0,0,1,3.08,1,3.4,3.4,0,0,1,1.11,2.69,3.53,3.53,0,0,1-.61,2.11A3.35,3.35,0,0,1,311,679l2.5,3.66Zm-.86-5a2.82,2.82,0,0,0,0-4,3.43,3.43,0,0,0-2.33-.7h-2.72v5.36h2.72A3.43,3.43,0,0,0,311.48,677.61Z" transform="translate(-87.82 -546.78)"/><path class="a" d="M322.36,679.81h-5.71l-1.23,2.85h-1.13L319,672H320l4.69,10.69h-1.14Zm-.4-.92-2.46-5.74L317,678.89Z" transform="translate(-87.82 -546.78)"/><path class="a" d="M326.43,672h1.08v9.71h5.74v1h-6.82Z" transform="translate(-87.82 -546.78)"/><polygon class="a" points="110.46 0 141.24 77.31 110.46 0 110.46 0"/><polygon class="a" points="179.35 77.31 148.57 0 142.64 0 128.55 37.85 131.21 44.55 140.91 17.78 155.41 54.58 135.21 54.58 136.86 58.73 157.04 58.73 164.39 77.31 156.74 77.31 156.74 81.47 184.56 81.47 184.56 77.31 179.35 77.31"/><path class="a" d="M192.35,546.78l-28.79,77.31h-5.51v4.15h20.16v-4.15H169l6.74-18.58h31l7.35,18.58h-7.66v4.15h27.83v-4.15h-5.21l-30.78-77.31Zm12.77,54.57H177.29l13.33-36.79,14.5,36.79Z" transform="translate(-87.82 -546.78)"/></svg>